Coordinates
version=1
nRows=60
nColumns=12
inDegrees=yes

Units are S.I. units (second, meters, Newtons, ...)
Angles are in degrees

endheader
time	SC_y	SC_z	SC_x	AC_y	AC_z	AC_x	GH_y	GH_z	GH_yy	EL_x	PS_y
       0.0              -48.94          3.531          42.95          36.54          1.326         -12.12         -51.48         -13.59         -128.6          112.3          81.45
    0.0106              -48.94          3.532          42.96          36.54          1.323         -12.12         -51.45         -13.59         -128.6          112.3          81.45
    0.0212              -48.93          3.534          42.96          36.54           1.32         -12.12         -51.41         -13.59         -128.6          112.3          81.44
    0.0318              -48.93          3.535          42.97          36.54          1.317         -12.12         -51.38          -13.6         -128.6          112.2          81.44
    0.0424              -48.92          3.537          42.97          36.54          1.314         -12.12         -51.34          -13.6         -128.5          112.2          81.44
     0.053              -48.92          3.539          42.98          36.54           1.31         -12.12          -51.3          -13.6         -128.5          112.2          81.43
    0.0636              -48.91          3.541          42.98          36.54          1.307         -12.12         -51.26          -13.6         -128.4          112.2          81.43
    0.0742               -48.9          3.543          42.99          36.54          1.302         -12.11         -51.21          -13.6         -128.4          112.2          81.42
    0.0848              -48.89          3.545          42.99          36.54          1.298         -12.11         -51.16          -13.6         -128.4          112.2          81.42
    0.0954              -48.89          3.547           43.0          36.54          1.293         -12.11         -51.11          -13.6         -128.3          112.2          81.41
     0.106              -48.88           3.55          43.01          36.54          1.288         -12.11         -51.05          -13.6         -128.3          112.2          81.41
    0.1166              -48.87          3.552          43.02          36.54          1.283         -12.11         -50.99          -13.6         -128.2          112.2           81.4
    0.1272              -48.86          3.555          43.03          36.54          1.277          -12.1         -50.93         -13.61         -128.2          112.2          81.39
    0.1378              -48.84          3.558          43.04          36.54          1.271          -12.1         -50.85         -13.61         -128.1          112.1          81.39
    0.1484              -48.83          3.562          43.05          36.54          1.264          -12.1         -50.78         -13.61         -128.0          112.1          81.38
     0.159              -48.82          3.566          43.06          36.54          1.257          -12.1         -50.69         -13.61         -128.0          112.1          81.37
    0.1696               -48.8           3.57          43.07          36.54          1.249         -12.09          -50.6         -13.61         -127.9          112.1          81.36
    0.1802              -48.79          3.574          43.08          36.54           1.24         -12.09          -50.5         -13.62         -127.8          112.1          81.35
    0.1908              -48.77          3.579           43.1          36.54           1.23         -12.08          -50.4         -13.62         -127.7          112.0          81.34
    0.2014              -48.75          3.584          43.11          36.54           1.22         -12.08         -50.28         -13.62         -127.6          112.0          81.32
     0.212              -48.73           3.59          43.13          36.54          1.208         -12.08         -50.15         -13.63         -127.5          112.0          81.31
    0.2226              -48.71          3.596          43.15          36.54          1.196         -12.07          -50.0         -13.63         -127.3          112.0          81.29
    0.2332              -48.68          3.603          43.17          36.54          1.182         -12.07         -49.85         -13.63         -127.2          111.9          81.28
    0.2438              -48.66          3.611          43.19          36.54          1.166         -12.06         -49.67         -13.64         -127.1          111.9          81.26
    0.2544              -48.62          3.619          43.22          36.54          1.149         -12.05         -49.48         -13.64         -126.9          111.9          81.24
     0.265              -48.59          3.629          43.25          36.54           1.13         -12.04         -49.26         -13.65         -126.7          111.8          81.22
    0.2756              -48.55           3.64          43.28          36.54          1.108         -12.04         -49.02         -13.65         -126.5          111.8          81.19
    0.2862              -48.51          3.652          43.32          36.54          1.084         -12.03         -48.74         -13.66         -126.2          111.7          81.16
    0.2968              -48.46          3.665          43.36          36.54          1.057         -12.01         -48.43         -13.67         -126.0          111.6          81.13
    0.3074               -48.4          3.681          43.41          36.54          1.026          -12.0         -48.08         -13.68         -125.7          111.6          81.09
     0.318              -48.34          3.699          43.46          36.54         0.9902         -11.99         -47.68         -13.69         -125.3          111.5          81.05
    0.3286              -48.26          3.719          43.52          36.55         0.9495         -11.97         -47.22          -13.7         -124.9          111.4           81.0
    0.3392              -48.18          3.742          43.59          36.55         0.9025         -11.95         -46.69         -13.71         -124.4          111.3          80.94
    0.3498              -48.08           3.77          43.68          36.55         0.8479         -11.93         -46.07         -13.73         -123.9          111.2          80.88
    0.3604              -47.96          3.802          43.77          36.55         0.7841          -11.9         -45.35         -13.74         -123.3          111.0           80.8
     0.371              -47.83          3.839          43.89          36.55         0.7088         -11.87          -44.5         -13.76         -122.5          110.8          80.71
    0.3816              -47.67          3.884          44.02          36.55         0.6193         -11.84         -43.49         -13.79         -121.6          110.6           80.6
    0.3922              -47.47          3.938          44.19          36.55         0.5121         -11.79         -42.28         -13.82         -120.6          110.4          80.47
    0.4028              -47.24          4.002          44.38          36.56         0.3824         -11.74         -40.81         -13.85         -119.3          110.1          80.32
    0.4134              -46.95          4.081          44.62          36.56         0.2239         -11.68         -39.02          -13.9         -117.7          109.7          80.13
     0.424               -46.6          4.179          44.92          36.56        0.02829          -11.6         -36.81         -13.95         -115.7          109.3          79.89
    0.4346              -46.16          4.301          45.29          36.57        -0.2156          -11.5         -34.06         -14.02         -113.3          108.7           79.6
    0.4452               -45.6          4.455          45.75          36.57        -0.5229         -11.37         -30.58         -14.11         -110.3          108.0          79.23
    0.4558              -44.89           4.65          46.35          36.58        -0.9135         -11.21         -26.17         -14.21         -106.4          107.1          78.76
    0.4664              -43.99          4.899           47.1          36.59         -1.413         -11.01         -20.52         -14.35         -101.4          105.9          78.16
     0.477              -42.83           5.22          48.08           36.6         -2.055         -10.75         -13.27         -14.53         -95.05          104.4          77.39
    0.4876              -41.35          5.629          49.32          36.62         -2.875         -10.41          -4.01         -14.76         -86.91          102.5           76.4
    0.4982              -39.49          6.144          50.88          36.64         -3.905         -9.994          7.634         -15.04         -76.68          100.2          75.16
    0.5088              -37.21          6.771          52.78          36.66         -5.161         -9.482          21.82         -15.39          -64.2          97.26          73.66
    0.5194              -34.58          7.498          54.99          36.69         -6.616          -8.89          38.27          -15.8         -49.75          93.89          71.91
      0.53              -31.73          8.286          57.38          36.72         -8.192         -8.248          56.08         -16.23         -34.09          90.24          70.01
    0.5406              -28.88          9.073          59.76          36.75         -9.768         -7.606          73.89         -16.67         -18.44           86.6          68.12
    0.5512              -26.25            9.8          61.97          36.78         -11.22         -7.014          90.34         -17.08         -3.977          83.23          66.37
    0.5618              -23.98          10.43          63.87           36.8         -12.48         -6.502          104.5         -17.42          8.497          80.32          64.86
    0.5724              -22.12          10.94          65.43          36.82         -13.51         -6.083          116.2         -17.71          18.73          77.94          63.62
     0.583              -20.64          11.35          66.68          36.84         -14.33         -5.749          125.4         -17.94          26.87          76.04          62.64
    0.5936              -19.47          11.67          67.65          36.85         -14.97         -5.488          132.7         -18.12          33.25          74.56          61.86
    0.6042              -18.57          11.92          68.41          36.86         -15.47         -5.284          138.3         -18.25          38.21           73.4          61.26
    0.6148              -17.86          12.12           69.0          36.87         -15.86         -5.125          142.7         -18.36          42.09           72.5          60.79
    0.6254              -17.31          12.27          69.46          36.87         -16.17           -5.0          146.2         -18.45          45.14          71.79          60.42
